<mxfile host="app.diagrams.net" modified="2023-04-28T17:06:34.991Z" agent="Mozilla/5.0 (Windows NT 10.0; Win64; x64) AppleWebKit/537.36 (KHTML, like Gecko) Chrome/112.0.0.0 Safari/537.36" etag="iVEQqJhMsdG6KyZHFZsU" version="21.2.3" type="device">
  <diagram name="Страница 1" id="8JjNsxk59QOfqC18I43z">
    <mxGraphModel dx="1320" dy="716" grid="1" gridSize="10" guides="1" tooltips="1" connect="1" arrows="1" fold="1" page="1" pageScale="1" pageWidth="827" pageHeight="1169" math="0" shadow="0">
      <root>
        <mxCell id="0" />
        <mxCell id="1" parent="0" />
        <mxCell id="FICRpOMBtXkWzAy6EPuR-2" value="Студент" style="shape=umlActor;verticalLabelPosition=bottom;verticalAlign=top;html=1;outlineConnect=0;" parent="1" vertex="1">
          <mxGeometry x="630" y="330" width="30" height="60" as="geometry" />
        </mxCell>
        <mxCell id="FICRpOMBtXkWzAy6EPuR-5" value="Админ" style="shape=umlActor;verticalLabelPosition=bottom;verticalAlign=top;html=1;outlineConnect=0;" parent="1" vertex="1">
          <mxGeometry x="110" y="360" width="30" height="60" as="geometry" />
        </mxCell>
        <mxCell id="FICRpOMBtXkWzAy6EPuR-8" value="Зайти на аккаунт" style="ellipse;whiteSpace=wrap;html=1;" parent="1" vertex="1">
          <mxGeometry x="280" y="270" width="100" height="50" as="geometry" />
        </mxCell>
        <mxCell id="_Tu5WyZBWmkeycvH8tmk-1" value="" style="endArrow=none;html=1;rounded=0;entryX=0;entryY=0.5;entryDx=0;entryDy=0;endFill=0;" parent="1" target="FICRpOMBtXkWzAy6EPuR-8" edge="1">
          <mxGeometry width="50" height="50" relative="1" as="geometry">
            <mxPoint x="140" y="380" as="sourcePoint" />
            <mxPoint x="190" y="330" as="targetPoint" />
          </mxGeometry>
        </mxCell>
        <mxCell id="_Tu5WyZBWmkeycvH8tmk-2" value="" style="endArrow=none;html=1;rounded=0;entryX=1;entryY=0.5;entryDx=0;entryDy=0;endFill=0;exitX=0;exitY=0.3333333333333333;exitDx=0;exitDy=0;exitPerimeter=0;" parent="1" source="FICRpOMBtXkWzAy6EPuR-2" target="FICRpOMBtXkWzAy6EPuR-8" edge="1">
          <mxGeometry width="50" height="50" relative="1" as="geometry">
            <mxPoint x="560" y="290" as="sourcePoint" />
            <mxPoint x="350" y="300" as="targetPoint" />
          </mxGeometry>
        </mxCell>
        <mxCell id="_Tu5WyZBWmkeycvH8tmk-5" value="Добавить рецепт" style="ellipse;whiteSpace=wrap;html=1;" parent="1" vertex="1">
          <mxGeometry x="270" y="60" width="100" height="50" as="geometry" />
        </mxCell>
        <mxCell id="_Tu5WyZBWmkeycvH8tmk-11" value="Посмотреть список рецептов" style="ellipse;whiteSpace=wrap;html=1;" parent="1" vertex="1">
          <mxGeometry x="280" y="350" width="100" height="50" as="geometry" />
        </mxCell>
        <mxCell id="_Tu5WyZBWmkeycvH8tmk-12" value="" style="endArrow=none;html=1;rounded=0;entryX=1;entryY=0.5;entryDx=0;entryDy=0;exitX=0;exitY=0.3333333333333333;exitDx=0;exitDy=0;exitPerimeter=0;endFill=0;" parent="1" source="FICRpOMBtXkWzAy6EPuR-2" target="_Tu5WyZBWmkeycvH8tmk-11" edge="1">
          <mxGeometry width="50" height="50" relative="1" as="geometry">
            <mxPoint x="140" y="240" as="sourcePoint" />
            <mxPoint x="360" y="180" as="targetPoint" />
          </mxGeometry>
        </mxCell>
        <mxCell id="_Tu5WyZBWmkeycvH8tmk-13" value="" style="endArrow=none;html=1;rounded=0;endFill=0;exitX=0;exitY=0.5;exitDx=0;exitDy=0;" parent="1" edge="1" source="_Tu5WyZBWmkeycvH8tmk-5">
          <mxGeometry width="50" height="50" relative="1" as="geometry">
            <mxPoint x="140" y="100" as="sourcePoint" />
            <mxPoint x="140" y="380" as="targetPoint" />
          </mxGeometry>
        </mxCell>
        <mxCell id="_Tu5WyZBWmkeycvH8tmk-14" value="" style="endArrow=none;html=1;rounded=0;entryX=0.023;entryY=0.657;entryDx=0;entryDy=0;exitX=1;exitY=0.3333333333333333;exitDx=0;exitDy=0;exitPerimeter=0;entryPerimeter=0;endFill=0;" parent="1" source="FICRpOMBtXkWzAy6EPuR-5" target="_Tu5WyZBWmkeycvH8tmk-11" edge="1">
          <mxGeometry width="50" height="50" relative="1" as="geometry">
            <mxPoint x="150" y="390" as="sourcePoint" />
            <mxPoint x="250.0000000000001" y="335" as="targetPoint" />
          </mxGeometry>
        </mxCell>
        <mxCell id="_Tu5WyZBWmkeycvH8tmk-15" value="Просмотреть страницу тренировок" style="ellipse;whiteSpace=wrap;html=1;" parent="1" vertex="1">
          <mxGeometry x="280" y="190" width="100" height="50" as="geometry" />
        </mxCell>
        <mxCell id="_Tu5WyZBWmkeycvH8tmk-20" value="" style="endArrow=none;html=1;rounded=0;entryX=1;entryY=0.5;entryDx=0;entryDy=0;endFill=0;exitX=0;exitY=0.3333333333333333;exitDx=0;exitDy=0;exitPerimeter=0;" parent="1" source="FICRpOMBtXkWzAy6EPuR-2" target="_Tu5WyZBWmkeycvH8tmk-15" edge="1">
          <mxGeometry width="50" height="50" relative="1" as="geometry">
            <mxPoint x="560" y="290" as="sourcePoint" />
            <mxPoint x="390" y="305" as="targetPoint" />
          </mxGeometry>
        </mxCell>
        <mxCell id="_Tu5WyZBWmkeycvH8tmk-21" value="" style="endArrow=none;html=1;rounded=0;entryX=0;entryY=0.5;entryDx=0;entryDy=0;endFill=0;" parent="1" target="_Tu5WyZBWmkeycvH8tmk-15" edge="1">
          <mxGeometry width="50" height="50" relative="1" as="geometry">
            <mxPoint x="140" y="380" as="sourcePoint" />
            <mxPoint x="290.0000000000001" y="305" as="targetPoint" />
          </mxGeometry>
        </mxCell>
        <mxCell id="_Tu5WyZBWmkeycvH8tmk-31" value="Поставить рецепту \ тренировке" style="ellipse;whiteSpace=wrap;html=1;" parent="1" vertex="1">
          <mxGeometry x="480" y="190" width="100" height="50" as="geometry" />
        </mxCell>
        <mxCell id="_Tu5WyZBWmkeycvH8tmk-32" value="" style="endArrow=none;html=1;rounded=0;endFill=0;" parent="1" target="uD8i49bgvEu8XSmPZXls-5" edge="1">
          <mxGeometry width="50" height="50" relative="1" as="geometry">
            <mxPoint x="630" y="350" as="sourcePoint" />
            <mxPoint x="670" y="180" as="targetPoint" />
          </mxGeometry>
        </mxCell>
        <mxCell id="uD8i49bgvEu8XSmPZXls-2" value="Добавить тренировку" style="ellipse;whiteSpace=wrap;html=1;" vertex="1" parent="1">
          <mxGeometry x="280" y="120" width="100" height="50" as="geometry" />
        </mxCell>
        <mxCell id="uD8i49bgvEu8XSmPZXls-4" value="" style="endArrow=none;html=1;rounded=0;endFill=0;exitX=0;exitY=0.5;exitDx=0;exitDy=0;" edge="1" parent="1" source="uD8i49bgvEu8XSmPZXls-2">
          <mxGeometry width="50" height="50" relative="1" as="geometry">
            <mxPoint x="280" y="95" as="sourcePoint" />
            <mxPoint x="140" y="380" as="targetPoint" />
          </mxGeometry>
        </mxCell>
        <mxCell id="uD8i49bgvEu8XSmPZXls-5" value="Просмотр профиля" style="ellipse;whiteSpace=wrap;html=1;" vertex="1" parent="1">
          <mxGeometry x="610" y="190" width="100" height="50" as="geometry" />
        </mxCell>
        <mxCell id="uD8i49bgvEu8XSmPZXls-6" value="" style="endArrow=none;html=1;rounded=0;entryX=0.564;entryY=0.977;entryDx=0;entryDy=0;endFill=0;entryPerimeter=0;" edge="1" parent="1" target="_Tu5WyZBWmkeycvH8tmk-31">
          <mxGeometry width="50" height="50" relative="1" as="geometry">
            <mxPoint x="630" y="350" as="sourcePoint" />
            <mxPoint x="540" y="250" as="targetPoint" />
          </mxGeometry>
        </mxCell>
        <mxCell id="uD8i49bgvEu8XSmPZXls-7" value="Редактирование профиля" style="ellipse;whiteSpace=wrap;html=1;" vertex="1" parent="1">
          <mxGeometry x="540" y="120" width="100" height="50" as="geometry" />
        </mxCell>
        <mxCell id="uD8i49bgvEu8XSmPZXls-8" value="" style="endArrow=none;html=1;rounded=0;endFill=0;entryX=0.5;entryY=1;entryDx=0;entryDy=0;" edge="1" parent="1" target="uD8i49bgvEu8XSmPZXls-7">
          <mxGeometry width="50" height="50" relative="1" as="geometry">
            <mxPoint x="630" y="350" as="sourcePoint" />
            <mxPoint x="665" y="250" as="targetPoint" />
          </mxGeometry>
        </mxCell>
        <mxCell id="uD8i49bgvEu8XSmPZXls-9" value="Просмотр расписания" style="ellipse;whiteSpace=wrap;html=1;" vertex="1" parent="1">
          <mxGeometry x="420" y="450" width="100" height="50" as="geometry" />
        </mxCell>
        <mxCell id="uD8i49bgvEu8XSmPZXls-10" value="Редактирование расписания" style="ellipse;whiteSpace=wrap;html=1;" vertex="1" parent="1">
          <mxGeometry x="530" y="470" width="100" height="50" as="geometry" />
        </mxCell>
        <mxCell id="uD8i49bgvEu8XSmPZXls-11" value="" style="endArrow=none;html=1;rounded=0;endFill=0;entryX=0.776;entryY=0.087;entryDx=0;entryDy=0;entryPerimeter=0;exitX=0;exitY=0.3333333333333333;exitDx=0;exitDy=0;exitPerimeter=0;" edge="1" parent="1" source="FICRpOMBtXkWzAy6EPuR-2" target="uD8i49bgvEu8XSmPZXls-9">
          <mxGeometry width="50" height="50" relative="1" as="geometry">
            <mxPoint x="640" y="360" as="sourcePoint" />
            <mxPoint x="600" y="180" as="targetPoint" />
          </mxGeometry>
        </mxCell>
        <mxCell id="uD8i49bgvEu8XSmPZXls-12" value="" style="endArrow=none;html=1;rounded=0;endFill=0;entryX=0.5;entryY=0;entryDx=0;entryDy=0;" edge="1" parent="1" target="uD8i49bgvEu8XSmPZXls-10">
          <mxGeometry width="50" height="50" relative="1" as="geometry">
            <mxPoint x="630" y="350" as="sourcePoint" />
            <mxPoint x="508" y="464" as="targetPoint" />
          </mxGeometry>
        </mxCell>
      </root>
    </mxGraphModel>
  </diagram>
</mxfile>
